# xmcd
#
# Track frame offsets: 
#        150
#        18000
#        29994
#        43932
#        57907
#        72802
#        87976
#        117857
#
# Disc length: 2218 seconds
#
# Revision: 1
# Processed by: cddbd v1.5.2PL0 Copyright (c) Steve Scherf et al.
# Submitted via: ExactAudioCopy v1.0b1
#
DISCID=6908a808
DTITLE=Tokyo Dragon - Come On Baby EP
DYEAR=2005
DGENRE=Hard Rock
TTITLE0=Come On Baby
TTITLE1=High On Hate
TTITLE2=Everybody That's Right
TTITLE3=This Means War
TTITLE4=Get Em Off [Live]
TTITLE5=Jonny Don't Wanna Ride [live]
TTITLE6=Come On Baby [Live]
TTITLE7=VIDEO
EXTD=
EXTT0=
EXTT1=
EXTT2=
EXTT3=
EXTT4=
EXTT5=
EXTT6=
EXTT7=
PLAYORDER=
